<svg width="123" height="26" viewBox="0 0 123 26" fill="none" xmlns="http://www.w3.org/2000/svg">
<path d="M95.9452 17.8204C95.725 19.7027 94.18 21.1609 92.3068 21.1609C90.3515 21.1609 88.7537 19.5719 88.6472 17.5703C89.968 18.4489 91.0715 18.2881 91.8071 17.9382C93.8144 16.8205 95.2318 17.3724 95.9452 17.8204Z" fill="#17B897"/>
<path d="M93.1476 3.0425C93.1476 3.64742 92.6575 4.1378 92.0529 4.1378C91.4483 4.1378 90.9582 3.64742 90.9582 3.0425C90.9582 2.43758 91.4483 1.9472 92.0529 1.9472C92.6575 1.9472 93.1476 2.43758 93.1476 3.0425Z" fill="#17B897"/>
<path d="M92.2962 7.9105C92.2962 8.17936 92.0784 8.3973 91.8097 8.3973C91.541 8.3973 91.3231 8.17936 91.3231 7.9105C91.3231 7.64165 91.541 7.4237 91.8097 7.4237C92.0784 7.4237 92.2962 7.64165 92.2962 7.9105Z" fill="#17B897"/>
<path d="M94.2424 5.9633C94.2424 6.29937 93.9701 6.5718 93.6342 6.5718C93.2983 6.5718 93.026 6.29937 93.026 5.9633C93.026 5.62724 93.2983 5.3548 93.6342 5.3548C93.9701 5.3548 94.2424 5.62724 94.2424 5.9633Z" fill="#17B897"/>
<path d="M90.8366 15.1517C90.8366 15.3869 90.646 15.5776 90.4109 15.5776C90.1757 15.5776 89.9852 15.3869 89.9852 15.1517C89.9852 14.9164 90.1757 14.7257 90.4109 14.7257C90.646 14.7257 90.8366 14.9164 90.8366 15.1517Z" fill="#17B897"/>
<path d="M93.2693 13.8738C93.2693 14.2771 92.9425 14.604 92.5395 14.604C92.1364 14.604 91.8097 14.2771 91.8097 13.8738C91.8097 13.4705 92.1364 13.1436 92.5395 13.1436C92.9425 13.1436 93.2693 13.4705 93.2693 13.8738Z" fill="#17B897"/>
<path d="M95.4587 15.6993C95.4587 16.0354 95.1864 16.3078 94.8505 16.3078C94.5146 16.3078 94.2424 16.0354 94.2424 15.6993C94.2424 15.3632 94.5146 15.0908 94.8505 15.0908C95.1864 15.0908 95.4587 15.3632 95.4587 15.6993Z" fill="#17B897"/>
<path d="M18.7317 5.86108V1.7038H0V5.86108H7.28834V25.557H11.4434V5.86108H18.7317Z" fill="#0A0B0A"/>
<path d="M37.7319 25.557V14.789C37.7319 13.5395 37.4254 12.4093 36.8123 11.3984C36.2106 10.3761 35.3989 9.564 34.3772 8.96199C33.3555 8.34862 32.2259 8.04194 30.9885 8.04194C30.0576 8.04194 29.1891 8.22368 28.3831 8.58716C27.577 8.93928 26.8845 9.42202 26.3055 10.0354L26.2885 0H22.1335L22.1505 25.557H26.3055V15.8794C26.3055 15.2093 26.4645 14.6016 26.7824 14.0564C27.1116 13.4998 27.5486 13.0625 28.0936 12.7444C28.6498 12.415 29.2629 12.2503 29.9327 12.2503C30.6025 12.2503 31.2098 12.415 31.7548 12.7444C32.311 13.0625 32.7538 13.4998 33.083 14.0564C33.4122 14.6016 33.5768 15.2093 33.5768 15.8794V25.557H37.7319Z" fill="#0A0B0A"/>
<path fill-rule="evenodd" clip-rule="evenodd" d="M43.9934 24.7903C45.2876 25.5968 46.718 26 48.2847 26C49.9876 26 51.5259 25.5229 52.8995 24.5688C54.2732 23.6033 55.3063 22.3652 55.9988 20.8545L51.7586 19.8663C51.3612 20.4797 50.8617 20.9681 50.26 21.3316C49.6697 21.6837 49.0113 21.8541 48.2847 21.8427C47.5808 21.8314 46.9508 21.678 46.3945 21.3827C45.8382 21.076 45.3784 20.6728 45.0152 20.173C44.6519 19.6619 44.3908 19.0882 44.2318 18.4522H56.6799C56.8729 17.0891 56.7934 15.7829 56.4415 14.5334C56.0896 13.284 55.5276 12.1708 54.7557 11.194C53.9837 10.2171 53.0414 9.45042 51.9289 8.89384C50.8277 8.32591 49.6129 8.04194 48.2847 8.04194C47.1154 8.04194 46.0142 8.27479 44.9811 8.7405C43.948 9.2062 43.0398 9.85365 42.2565 10.6828C41.4845 11.5007 40.8772 12.4548 40.4344 13.5452C39.9917 14.6243 39.7703 15.7829 39.7703 17.021C39.7703 18.668 40.1506 20.173 40.9112 21.536C41.6832 22.8991 42.7106 23.9838 43.9934 24.7903ZM52.4738 15.3342H44.0956C44.2432 14.6413 44.5157 14.0223 44.913 13.4771C45.3217 12.9205 45.8155 12.4832 46.3945 12.1651C46.9735 11.8357 47.6035 11.671 48.2847 11.671C48.9658 11.671 49.6016 11.8357 50.1919 12.1651C50.7823 12.4945 51.2761 12.9375 51.6734 13.4941C52.0821 14.0393 52.3489 14.6527 52.4738 15.3342Z" fill="#0A0B0A"/>
<path d="M68.0315 1.7038V25.557H82.1143V21.3997H72.1865V1.7038H68.0315Z" fill="#0A0B0A"/>
<path d="M101.456 8.519H97.3014L97.4887 10.6999C96.8643 9.92748 96.1037 9.29139 95.2068 8.79161C94.7543 8.5362 94.2706 8.34605 93.7558 8.22117V12.2493C94.119 12.3596 94.4607 12.519 94.7811 12.7274C95.4736 13.1704 96.0129 13.7724 96.3988 14.5334C96.7848 15.2831 96.9778 16.118 96.9778 17.038C96.9778 17.9467 96.7848 18.7816 96.3988 19.5426C96.0129 20.2923 95.4793 20.8886 94.7981 21.3316C94.117 21.7746 93.3337 21.9961 92.4482 21.9961C91.5854 21.9961 90.7907 21.7746 90.0641 21.3316C89.3489 20.8886 88.7756 20.2923 88.3442 19.5426C87.9128 18.7929 87.6971 17.9581 87.6971 17.038C87.6971 16.118 87.9071 15.2831 88.3272 14.5334C88.7586 13.7837 89.3319 13.1874 90.0471 12.7444C90.2632 12.6093 90.4858 12.4943 90.715 12.3993V8.16038C90.0453 8.27083 89.4026 8.45852 88.787 8.72346C87.7312 9.17781 86.8003 9.80821 85.9942 10.6147C85.1882 11.4211 84.5581 12.3582 84.104 13.426C83.6613 14.4937 83.4399 15.6352 83.4399 16.8506C83.4399 18.1114 83.6726 19.2927 84.1381 20.3945C84.6149 21.4963 85.2677 22.4675 86.0964 23.308C86.9365 24.1485 87.9071 24.8073 89.0083 25.2844C90.1095 25.7615 91.2902 26 92.5503 26C93.5948 26 94.4973 25.7671 95.2579 25.3014C96.0299 24.8244 96.6486 24.2053 97.1141 23.4443L97.3014 25.557H101.456V8.519Z" fill="#0A0B0A"/>
<path fill-rule="evenodd" clip-rule="evenodd" d="M118.538 9.25164C117.176 8.44517 115.666 8.04194 114.009 8.04194C112.942 8.04194 111.994 8.28615 111.165 8.77457C110.348 9.25164 109.661 9.87637 109.104 10.6488V0H104.949V25.557H109.104V23.3932C109.661 24.1656 110.348 24.796 111.165 25.2844C111.994 25.7615 112.942 26 114.009 26C115.258 26 116.421 25.7671 117.5 25.3014C118.59 24.8357 119.543 24.194 120.361 23.3761C121.189 22.547 121.836 21.5872 122.302 20.4967C122.767 19.4063 123 18.242 123 17.0039C123 15.3569 122.597 13.8576 121.791 12.5059C120.985 11.1429 119.901 10.0581 118.538 9.25164ZM116.359 21.3145C115.644 21.7575 114.843 21.979 113.958 21.979C113.095 21.979 112.323 21.7575 111.642 21.3145C110.961 20.8716 110.427 20.2752 110.041 19.5256C109.655 18.7645 109.462 17.924 109.462 17.0039C109.462 16.1066 109.655 15.2831 110.041 14.5334C110.427 13.7724 110.961 13.1704 111.642 12.7274C112.323 12.273 113.095 12.0459 113.958 12.0459C114.832 12.0459 115.632 12.2674 116.359 12.7104C117.085 13.1533 117.664 13.7554 118.096 14.5164C118.527 15.2661 118.743 16.0952 118.743 17.0039C118.743 17.924 118.527 18.7588 118.096 19.5085C117.664 20.2582 117.085 20.8602 116.359 21.3145Z" fill="#0A0B0A"/>
</svg>
