<svg
  viewBox="0 0 252 42"
  fill="none"
  xmlns="http://www.w3.org/2000/svg">
  <path
    d="M8.68966 27.7239C7.22406 27.7424 5.72492 25.1359 5.11507 26.5286C4.85949 27.1123 5.06592 27.5324 5.11507 28.1722C5.30932 30.7 5.8543 32.3302 7.54579 34.1486C8.92174 35.6281 10.067 36.1721 11.9783 36.6887C13.9244 37.2149 15.1594 37.1251 17.1257 36.6887C19.3002 36.206 20.6562 35.7429 22.2731 34.1486C24.4979 31.9551 28.1408 25.9479 25.1327 26.5286C24.1505 26.7182 23.8339 27.5763 22.845 27.7239C21.4466 27.9327 20.8259 26.5094 19.4134 26.5286C18.0538 26.5471 17.4824 27.6438 16.1248 27.7239C14.5014 27.8198 13.7458 26.4548 12.1213 26.5286C10.71 26.5927 10.1022 27.7061 8.68966 27.7239Z"
    fill="#17B897" />
  <path
    d="M24.6928 3.0083L26.341 4.19661M26.341 4.19661L18.1353 15.8915C18.1353 15.8915 10.9062 14.8988 7.09181 19.2505C2.9944 23.9251 3.44635 31.3553 8.29891 35.2161C13.356 39.2398 21.2534 37.4122 24.397 31.7275C27.5406 26.0431 23.9037 20.0505 23.9037 20.0505L32.1094 8.35565M26.341 4.19661L32.1094 8.35565M33.7574 9.54396L32.1094 8.35565"
    stroke="#E4FCF7"
    stroke-width="3"
    stroke-linecap="round" />
  <path
    d="M35.8941 10.5212C35.8939 10.5402 35.8936 10.559 35.8936 10.5774C35.8907 11.7138 36.105 13.0835 37.5767 13.3578C38.264 13.486 39.1517 13.2474 39.6483 12.7118C40.238 12.0756 40.1276 11.2587 39.7888 10.6517C39.3736 9.90745 38.7053 9.43331 37.8977 9.00198C37.6516 8.87048 37.3715 8.75927 37.0491 8.77106C36.0224 8.80837 35.9046 9.94919 35.8941 10.5212Z"
    fill="#17B897" />
  <path
    d="M18.7533 24.3929C19.3018 24.3929 19.7465 23.9421 19.7465 23.3861C19.7465 22.83 19.3018 22.3792 18.7533 22.3792C18.2047 22.3792 17.76 22.83 17.76 23.3861C17.76 23.9421 18.2047 24.3929 18.7533 24.3929Z"
    fill="#17B897" />
  <path
    d="M23.1519 14.8997C23.6221 14.8997 24.0032 14.5133 24.0032 14.0367C24.0032 13.5601 23.6221 13.1737 23.1519 13.1737C22.6817 13.1737 22.3005 13.5601 22.3005 14.0367C22.3005 14.5133 22.6817 14.8997 23.1519 14.8997Z"
    fill="#17B897" />
  <path
    d="M11.3749 24.6806C11.61 24.6806 11.8006 24.4874 11.8006 24.2491C11.8006 24.0108 11.61 23.8176 11.3749 23.8176C11.1398 23.8176 10.9492 24.0108 10.9492 24.2491C10.9492 24.4874 11.1398 24.6806 11.3749 24.6806Z"
    fill="#17B897" />
  <path
    d="M14.4966 21.2285C14.8884 21.2285 15.206 20.9065 15.206 20.5093C15.206 20.1121 14.8884 19.7902 14.4966 19.7902C14.1047 19.7902 13.7871 20.1121 13.7871 20.5093C13.7871 20.9065 14.1047 21.2285 14.4966 21.2285Z"
    fill="#17B897" />
  <path
    d="M27.5505 10.8724C27.9423 10.8724 28.26 10.5504 28.26 10.1532C28.26 9.75601 27.9423 9.43402 27.5505 9.43402C27.1587 9.43402 26.8411 9.75601 26.8411 10.1532C26.8411 10.5504 27.1587 10.8724 27.5505 10.8724Z"
    fill="#17B897" />
  <path
    d="M56.7614 11.98V15.1387H51.2957V30.1033H48.1798V15.1387H42.7141V11.98H56.7614ZM58.1903 17.1581H61.3062V30.1033H58.1903V17.1581ZM59.7738 15.4882C59.314 15.4882 58.9267 15.3372 58.6117 15.0351C58.2967 14.7244 58.1392 14.3361 58.1392 13.87C58.1392 13.4126 58.2967 13.0286 58.6117 12.7179C58.9267 12.4072 59.3098 12.2519 59.761 12.2519C60.2122 12.2519 60.5911 12.4072 60.8976 12.7179C61.2126 13.0286 61.3701 13.4126 61.3701 13.87C61.3701 14.3361 61.2168 14.7244 60.9103 15.0351C60.6038 15.3372 60.225 15.4882 59.7738 15.4882ZM64.276 30.1033V17.1581H67.3919V18.3102C67.8261 17.8442 68.3455 17.4774 68.9499 17.2099C69.5544 16.9337 70.2057 16.7957 70.9038 16.7957C71.7892 16.7957 72.6022 17.0071 73.3429 17.43C74.0921 17.8528 74.688 18.4181 75.1307 19.1258C75.5819 18.4181 76.1779 17.8528 76.9186 17.43C77.6592 17.0071 78.4723 16.7957 79.3577 16.7957C80.2942 16.7957 81.1413 17.0287 81.899 17.4947C82.6652 17.9521 83.2739 18.5692 83.7251 19.3459C84.1849 20.1139 84.4147 20.9726 84.4147 21.922V30.1033H81.2988V22.7634C81.2988 22.2628 81.1753 21.8055 80.9284 21.3912C80.6901 20.9683 80.3665 20.6318 79.9579 20.3815C79.5578 20.1226 79.1065 19.9931 78.6042 19.9931C78.1019 19.9931 77.6465 20.1183 77.2378 20.3685C76.8377 20.6102 76.5142 20.9381 76.2673 21.3524C76.0204 21.7666 75.8969 22.237 75.8969 22.7634V30.1033H72.781V22.7634C72.781 22.237 72.6618 21.7666 72.4234 21.3524C72.1851 20.9381 71.8615 20.6102 71.4529 20.3685C71.0442 20.1183 70.5888 19.9931 70.0865 19.9931C69.5927 19.9931 69.1415 20.1226 68.7328 20.3815C68.3242 20.6318 67.9964 20.9683 67.7495 21.3912C67.5111 21.8055 67.3919 22.2628 67.3919 22.7634V30.1033H64.276ZM86.0263 18.7374L86.8181 11.98H89.934L88.1079 18.7374H86.0263ZM96.003 30.3363C95.339 30.2932 94.6962 30.1594 94.0747 29.935C93.4617 29.702 92.9169 29.387 92.4401 28.99C91.9634 28.5931 91.5973 28.1184 91.3419 27.5661L93.9725 26.4269C94.0747 26.5995 94.2407 26.785 94.4706 26.9835C94.7005 27.1734 94.9729 27.3331 95.2879 27.4625C95.6114 27.592 95.9647 27.6567 96.3478 27.6567C96.6713 27.6567 96.9778 27.6135 97.2673 27.5272C97.5653 27.4323 97.8036 27.2899 97.9824 27.1C98.1697 26.9102 98.2634 26.6642 98.2634 26.3622C98.2634 26.0428 98.1527 25.7969 97.9313 25.6243C97.7185 25.4431 97.4461 25.3093 97.114 25.223C96.7905 25.1281 96.4755 25.0418 96.169 24.9641C95.3603 24.8001 94.6068 24.5455 93.9087 24.2003C93.2191 23.8551 92.6615 23.4107 92.2358 22.867C91.8186 22.3146 91.6101 21.6501 91.6101 20.8734C91.6101 20.019 91.8314 19.2811 92.2741 18.6598C92.7253 18.0384 93.3085 17.5594 94.0236 17.2228C94.7473 16.8863 95.5263 16.718 96.3606 16.718C97.3737 16.718 98.3017 16.9337 99.1445 17.3652C99.9959 17.7881 100.668 18.3879 101.162 19.1646L98.6975 20.6404C98.5784 20.4333 98.4124 20.2434 98.1995 20.0708C97.9867 19.8896 97.744 19.7428 97.4716 19.6307C97.1992 19.5098 96.914 19.4408 96.616 19.4235C96.2329 19.4063 95.8838 19.4408 95.5688 19.5271C95.2538 19.6134 94.9984 19.7601 94.8026 19.9672C94.6153 20.1744 94.5217 20.4505 94.5217 20.7957C94.5217 21.1237 94.6494 21.3696 94.9048 21.5336C95.1602 21.6889 95.4667 21.8098 95.8242 21.8961C96.1903 21.9824 96.5394 22.0773 96.8714 22.1809C97.6206 22.4311 98.323 22.7375 98.9785 23.1C99.6426 23.4624 100.175 23.9069 100.575 24.4333C100.975 24.9598 101.166 25.5898 101.149 26.3233C101.149 27.1605 100.903 27.894 100.409 28.524C99.915 29.1454 99.2765 29.62 98.4932 29.948C97.7185 30.2759 96.8884 30.4054 96.003 30.3363ZM109.471 30.1033V11.98H120.683V15.1387H112.587V18.8151H119.01V21.9737H112.587V26.9447H120.683V30.1033H109.471ZM122.254 30.1033L126.928 23.6048L122.292 17.1452H126.136L128.843 20.9122L131.563 17.1452H135.407L130.772 23.6048L135.446 30.1033H131.602L128.843 26.2715L126.098 30.1033H122.254ZM140.547 36.5759H137.431V17.1581H140.547V18.8022C140.964 18.2153 141.475 17.7407 142.079 17.3782C142.692 17.0071 143.407 16.8215 144.224 16.8215C145.161 16.8215 146.034 16.9985 146.842 17.3523C147.651 17.7061 148.362 18.1981 148.975 18.8281C149.596 19.4494 150.077 20.17 150.418 20.9899C150.767 21.8098 150.942 22.69 150.942 23.6307C150.942 24.5714 150.767 25.456 150.418 26.2845C150.077 27.113 149.596 27.8422 148.975 28.4722C148.362 29.0936 147.651 29.5812 146.842 29.935C146.034 30.2889 145.161 30.4658 144.224 30.4658C143.407 30.4658 142.692 30.2846 142.079 29.9221C141.475 29.551 140.964 29.072 140.547 28.4852V36.5759ZM144.186 19.8637C143.539 19.8637 142.96 20.0363 142.449 20.3815C141.939 20.7181 141.538 21.1711 141.249 21.7407C140.959 22.3103 140.815 22.9403 140.815 23.6307C140.815 24.3211 140.959 24.9555 141.249 25.5337C141.538 26.1033 141.939 26.5607 142.449 26.9059C142.96 27.2424 143.539 27.4107 144.186 27.4107C144.842 27.4107 145.442 27.2424 145.987 26.9059C146.532 26.5693 146.966 26.1162 147.289 25.5466C147.613 24.9684 147.775 24.3298 147.775 23.6307C147.775 22.9403 147.613 22.3103 147.289 21.7407C146.966 21.1711 146.532 20.7181 145.987 20.3815C145.45 20.0363 144.85 19.8637 144.186 19.8637ZM158.613 30.4399C157.439 30.4399 156.366 30.1335 155.395 29.5208C154.433 28.9081 153.663 28.0839 153.084 27.0483C152.513 26.0126 152.228 24.8692 152.228 23.6178C152.228 22.6771 152.394 21.7968 152.726 20.977C153.058 20.1485 153.514 19.4235 154.093 18.8022C154.68 18.1722 155.361 17.6802 156.136 17.3264C156.911 16.9726 157.736 16.7957 158.613 16.7957C159.609 16.7957 160.52 17.0114 161.346 17.4429C162.181 17.8658 162.887 18.4483 163.466 19.1905C164.045 19.9327 164.466 20.7785 164.73 21.7278C164.994 22.6771 165.054 23.6696 164.909 24.7052H155.574C155.693 25.1885 155.889 25.6243 156.162 26.0126C156.434 26.3924 156.779 26.6987 157.196 26.9318C157.613 27.1561 158.086 27.2726 158.613 27.2813C159.158 27.2899 159.652 27.1605 160.095 26.8929C160.546 26.6168 160.921 26.2457 161.219 25.7796L164.398 26.5305C163.879 27.6783 163.104 28.6189 162.074 29.3525C161.044 30.0774 159.89 30.4399 158.613 30.4399ZM155.472 22.3362H161.755C161.661 21.8184 161.461 21.3524 161.155 20.9381C160.857 20.5152 160.486 20.1787 160.044 19.9284C159.601 19.6781 159.124 19.553 158.613 19.553C158.103 19.553 157.63 19.6781 157.196 19.9284C156.762 20.17 156.391 20.5023 156.085 20.9252C155.787 21.3394 155.583 21.8098 155.472 22.3362ZM167 30.1033L166.987 17.1581H170.103L170.116 18.3102C170.55 17.8442 171.069 17.4774 171.674 17.2099C172.278 16.9337 172.929 16.7957 173.628 16.7957C174.096 16.7957 174.564 16.8647 175.032 17.0028L173.806 20.1873C173.483 20.0579 173.159 19.9931 172.836 19.9931C172.333 19.9931 171.874 20.1183 171.457 20.3685C171.048 20.6102 170.72 20.9424 170.473 21.3653C170.235 21.7796 170.116 22.2413 170.116 22.7505V30.1033H167ZM176.415 17.1581H179.531V30.1033H176.415V17.1581ZM177.998 15.4882C177.539 15.4882 177.151 15.3372 176.836 15.0351C176.521 14.7244 176.364 14.3361 176.364 13.87C176.364 13.4126 176.521 13.0286 176.836 12.7179C177.151 12.4072 177.534 12.2519 177.986 12.2519C178.437 12.2519 178.816 12.4072 179.122 12.7179C179.437 13.0286 179.595 13.4126 179.595 13.87C179.595 14.3361 179.441 14.7244 179.135 15.0351C178.828 15.3372 178.45 15.4882 177.998 15.4882ZM182.501 30.1033V17.1581H185.617V18.3102C186.051 17.8442 186.57 17.4774 187.175 17.2099C187.779 16.9337 188.431 16.7957 189.129 16.7957C190.014 16.7957 190.827 17.0071 191.568 17.43C192.317 17.8528 192.913 18.4181 193.356 19.1258C193.807 18.4181 194.403 17.8528 195.143 17.43C195.884 17.0071 196.697 16.7957 197.583 16.7957C198.519 16.7957 199.366 17.0287 200.124 17.4947C200.89 17.9521 201.499 18.5692 201.95 19.3459C202.41 20.1139 202.64 20.9726 202.64 21.922V30.1033H199.524V22.7634C199.524 22.2628 199.4 21.8055 199.153 21.3912C198.915 20.9683 198.591 20.6318 198.183 20.3815C197.783 20.1226 197.331 19.9931 196.829 19.9931C196.327 19.9931 195.871 20.1183 195.463 20.3685C195.063 20.6102 194.739 20.9381 194.492 21.3524C194.245 21.7666 194.122 22.237 194.122 22.7634V30.1033H191.006V22.7634C191.006 22.237 190.887 21.7666 190.648 21.3524C190.41 20.9381 190.086 20.6102 189.678 20.3685C189.269 20.1183 188.814 19.9931 188.311 19.9931C187.818 19.9931 187.366 20.1226 186.958 20.3815C186.549 20.6318 186.221 20.9683 185.974 21.3912C185.736 21.8055 185.617 22.2628 185.617 22.7634V30.1033H182.501ZM210.567 30.4399C209.393 30.4399 208.32 30.1335 207.349 29.5208C206.387 28.9081 205.617 28.0839 205.038 27.0483C204.467 26.0126 204.182 24.8692 204.182 23.6178C204.182 22.6771 204.348 21.7968 204.68 20.977C205.012 20.1485 205.468 19.4235 206.047 18.8022C206.634 18.1722 207.315 17.6802 208.09 17.3264C208.865 16.9726 209.691 16.7957 210.567 16.7957C211.563 16.7957 212.474 17.0114 213.3 17.4429C214.135 17.8658 214.841 18.4483 215.42 19.1905C215.999 19.9327 216.42 20.7785 216.684 21.7278C216.948 22.6771 217.008 23.6696 216.863 24.7052H207.528C207.647 25.1885 207.843 25.6243 208.115 26.0126C208.388 26.3924 208.733 26.6987 209.15 26.9318C209.567 27.1561 210.04 27.2726 210.567 27.2813C211.112 27.2899 211.606 27.1605 212.049 26.8929C212.5 26.6168 212.875 26.2457 213.173 25.7796L216.352 26.5305C215.833 27.6783 215.058 28.6189 214.028 29.3525C212.998 30.0774 211.844 30.4399 210.567 30.4399ZM207.426 22.3362H213.709C213.615 21.8184 213.415 21.3524 213.109 20.9381C212.811 20.5152 212.44 20.1787 211.998 19.9284C211.555 19.6781 211.078 19.553 210.567 19.553C210.057 19.553 209.584 19.6781 209.15 19.9284C208.716 20.17 208.345 20.5023 208.039 20.9252C207.741 21.3394 207.537 21.8098 207.426 22.3362ZM230.639 21.922V30.1033H227.523V22.7505C227.523 22.2413 227.399 21.7796 227.152 21.3653C226.905 20.9424 226.573 20.6102 226.156 20.3685C225.748 20.1183 225.292 19.9931 224.79 19.9931C224.287 19.9931 223.828 20.1183 223.411 20.3685C223.002 20.6102 222.674 20.9424 222.427 21.3653C222.189 21.7796 222.07 22.2413 222.07 22.7505V30.1033H218.954L218.941 17.1581H222.057L222.07 18.3102C222.504 17.8442 223.023 17.4774 223.628 17.2099C224.232 16.9337 224.883 16.7957 225.582 16.7957C226.51 16.7957 227.357 17.0287 228.123 17.4947C228.889 17.9521 229.498 18.5692 229.949 19.3459C230.409 20.1139 230.639 20.9726 230.639 21.922ZM240.028 20.3168H237.55V30.1033H234.434V20.3168H232.544V17.1581H234.434V13.0933H237.55V17.1581H240.028V20.3168ZM245.904 30.3363C245.24 30.2932 244.597 30.1594 243.976 29.935C243.363 29.702 242.818 29.387 242.341 28.99C241.864 28.5931 241.498 28.1184 241.243 27.5661L243.874 26.4269C243.976 26.5995 244.142 26.785 244.372 26.9835C244.602 27.1734 244.874 27.3331 245.189 27.4625C245.513 27.592 245.866 27.6567 246.249 27.6567C246.572 27.6567 246.879 27.6135 247.168 27.5272C247.466 27.4323 247.705 27.2899 247.884 27.1C248.071 26.9102 248.164 26.6642 248.164 26.3622C248.164 26.0428 248.054 25.7969 247.832 25.6243C247.62 25.4431 247.347 25.3093 247.015 25.223C246.692 25.1281 246.377 25.0418 246.07 24.9641C245.261 24.8001 244.508 24.5455 243.81 24.2003C243.12 23.8551 242.563 23.4107 242.137 22.867C241.72 22.3146 241.511 21.6501 241.511 20.8734C241.511 20.019 241.733 19.2811 242.175 18.6598C242.626 18.0384 243.21 17.5594 243.925 17.2228C244.648 16.8863 245.427 16.718 246.262 16.718C247.275 16.718 248.203 16.9337 249.046 17.3652C249.897 17.7881 250.57 18.3879 251.063 19.1646L248.599 20.6404C248.479 20.4333 248.313 20.2434 248.101 20.0708C247.888 19.8896 247.645 19.7428 247.373 19.6307C247.1 19.5098 246.815 19.4408 246.517 19.4235C246.134 19.4063 245.785 19.4408 245.47 19.5271C245.155 19.6134 244.9 19.7601 244.704 19.9672C244.516 20.1744 244.423 20.4505 244.423 20.7957C244.423 21.1237 244.55 21.3696 244.806 21.5336C245.061 21.6889 245.368 21.8098 245.725 21.8961C246.091 21.9824 246.44 22.0773 246.773 22.1809C247.522 22.4311 248.224 22.7375 248.88 23.1C249.544 23.4624 250.076 23.9069 250.476 24.4333C250.876 24.9598 251.068 25.5898 251.051 26.3233C251.051 27.1605 250.804 27.894 250.31 28.524C249.816 29.1454 249.178 29.62 248.394 29.948C247.62 30.2759 246.79 30.4054 245.904 30.3363Z"
    fill="#FAFAFA" />
</svg>
