<svg width="143" height="146" viewBox="0 0 143 146" fill="none" xmlns="http://www.w3.org/2000/svg">
<path class="elixir" d="M30.6208 96.3742C25.4563 96.4383 20.1736 87.3776 18.0246 92.219C17.124 94.2479 17.8514 95.7083 18.0246 97.9323C18.7091 106.72 20.6295 112.386 26.59 118.708C31.4386 123.85 35.4742 125.742 42.2093 127.538C49.0671 129.366 53.4188 129.055 60.3477 127.538C68.0104 125.86 72.7886 124.25 78.4862 118.708C86.3261 111.082 99.1628 90.2005 88.5631 92.219C85.1019 92.8782 83.9861 95.861 80.5016 96.3742C75.5738 97.0998 73.3867 92.1524 68.4093 92.219C63.6182 92.2832 61.6047 96.0955 56.8208 96.3742C51.1001 96.7073 48.4376 91.9625 42.7131 92.219C37.74 92.4419 35.5982 96.3123 30.6208 96.3742Z" fill="currentColor"/>
<path class="text" d="M87.0133 10.4575L92.821 14.5883M118.955 33.1767L113.148 29.0459M113.148 29.0459L84.2324 69.6994C84.2324 69.6994 97.0481 90.5309 85.9708 110.291C74.8935 130.052 47.0644 136.405 29.2442 122.418C12.1447 108.997 10.5521 83.1682 24.9906 66.9185C38.4317 51.7912 63.9057 55.2418 63.9057 55.2418L92.821 14.5883M113.148 29.0459L92.821 14.5883" stroke="currentColor" stroke-width="6" stroke-linecap="round"/>
<path class="elixir" d="M126.484 36.5736C126.483 36.6398 126.482 36.705 126.482 36.7691C126.472 40.7192 127.227 45.4805 132.413 46.4341C134.835 46.8797 137.963 46.0503 139.713 44.1885C141.791 41.9771 141.402 39.1373 140.208 37.0273C138.745 34.4401 136.39 32.7919 133.544 31.2925C132.677 30.8354 131.69 30.4488 130.554 30.4898C126.936 30.6195 126.521 34.5852 126.484 36.5736Z" fill="currentColor"/>
<circle class="elixir" cx="66.083" cy="81.2949" r="3.5" fill="currentColor"/>
<circle class="elixir" cx="81.583" cy="48.7949" r="3" fill="currentColor"/>
<circle class="elixir" cx="40.083" cy="84.2949" r="1.5" fill="currentColor"/>
<circle class="elixir" cx="51.083" cy="71.2949" r="2.5" fill="currentColor"/>
<circle class="elixir" cx="97.083" cy="35.2949" r="2.5" fill="currentColor"/>
<style>
    .text {
        color: #0a0b0a;
    }

    .elixir {
        color: #17B897;
    }

    @media (prefers-color-scheme: dark) {
        .text {
            color: #fafafa;
        }

        .elixir {
            color: #17b897;
        }
    }
</style>
</svg>
